<svg width="1080" height="1080" viewBox="0 0 1080 1080" xmlns="http://www.w3.org/2000/svg">
  <defs>
    <clipPath id="circleClip">
      <circle cx="540" cy="540" r="540" />
    </clipPath>
  </defs>

  <g clip-path="url(#circleClip)">
    <g transform="translate(540 540) scale(1.4) translate(-540 -540)">
      <rect width="1080" height="1080" fill="#C4CEFD" />
      <path
        d="M540.504 314C675.244 314 795.497 387.877 762.174 474.897C762.102 474.805 686.765 377.452 540.504 377.452C446.814 377.452 367.611 420.509 367.611 471.725C367.611 479.273 369.334 486.643 372.567 493.725C416.729 466.189 476.311 450.426 539.491 450.426C674.232 450.426 779.996 519.77 779.996 608.15C779.996 696.531 674.232 765.875 539.491 765.875C404.751 765.875 284.499 691.998 317.822 604.978C317.887 605.062 393.224 702.423 539.491 702.423C633.182 702.423 712.384 659.366 712.384 608.15C712.384 600.602 710.662 593.232 707.428 586.149C663.266 613.685 603.685 629.45 540.504 629.45C405.764 629.45 300 560.105 300 471.725C300 383.344 405.764 314 540.504 314ZM539.491 513.878C495.816 513.878 453.855 523.301 421.979 539.691C453.2 555.909 495.155 565.997 540.504 565.997C584.179 565.997 626.14 556.573 658.017 540.183C626.795 523.965 584.84 513.878 539.491 513.878Z"
        fill="#060A0E" />
    </g>
  </g>
</svg>
