<svg width="64" height="64" viewBox="0 0 64 64" fill="none" xmlns="http://www.w3.org/2000/svg">
  <rect width="64" height="64" rx="16" fill="#0F172A"/>
  <path d="M20 22C20 19.7909 21.7909 18 24 18H40C42.2091 18 44 19.7909 44 22V26C44 28.2091 42.2091 30 40 30H24C21.7909 30 20 28.2091 20 26V22Z" fill="#22C55E"/>
  <path d="M20 38C20 35.7909 21.7909 34 24 34H40C42.2091 34 44 35.7909 44 38V42C44 44.2091 42.2091 46 40 46H24C21.7909 46 20 44.2091 20 42V38Z" fill="#86EFAC"/>
  <circle cx="24" cy="24" r="2" fill="#0F172A"/>
  <circle cx="40" cy="40" r="2" fill="#0F172A"/>
</svg>
